<svg xmlns="http://www.w3.org/2000/svg" width="16" height="15" viewBox="0 0 16 15" fill="none"><g clip-path="url(#clip0_716_3026)"><path d="M15.0492 2.05064C14.8213 1.8296 14.4515 1.82922 14.2236 2.0497L7.21908 8.81383L4.69187 6.15622C4.4735 5.92671 4.10429 5.91182 3.86686 6.12323C3.62961 6.33466 3.61442 6.69232 3.83279 6.92204L6.77162 10.0123C6.87925 10.1256 7.02987 10.1913 7.1887 10.1945C7.19296 10.1947 7.19708 10.1947 7.20116 10.1947C7.35551 10.1947 7.50399 10.1353 7.61337 10.0298L15.048 2.85018C15.2765 2.62972 15.2769 2.27169 15.0492 2.05064Z" fill="#063248"></path><path d="M14.9082 6.93466C14.5857 6.93466 14.3243 7.18772 14.3243 7.5C14.3243 11.0122 11.3734 13.8693 7.74603 13.8693C4.11883 13.8693 1.16774 11.0122 1.16774 7.5C1.16774 3.98801 4.11883 1.13065 7.74603 1.13065C8.06852 1.13065 8.32992 0.877588 8.32992 0.565342C8.32992 0.253066 8.06852 0 7.74603 0C3.47482 0 0 3.36445 0 7.5C0 11.6354 3.47482 15 7.74603 15C12.0171 15 15.4921 11.6354 15.4921 7.5C15.4921 7.18775 15.2307 6.93466 14.9082 6.93466Z" fill="#063248"></path></g><defs><clipPath id="clip0_716_3026"><rect width="15.4921" height="15" fill="white"></rect></clipPath></defs></svg>