<svg xmlns="http://www.w3.org/2000/svg" width="18" height="18" viewBox="0 0 18 18" fill="none"><path d="M17.25 8.25001C17.0511 8.25001 16.8603 8.17099 16.7196 8.03034C16.579 7.88969 16.5 7.69892 16.5 7.50001C16.4984 5.9092 15.8657 4.384 14.7409 3.25912C13.616 2.13425 12.0908 1.5016 10.5 1.50001C10.3011 1.50001 10.1103 1.42099 9.96965 1.28034C9.829 1.13969 9.74998 0.94892 9.74998 0.750008C9.74998 0.551095 9.829 0.36033 9.96965 0.219677C10.1103 0.0790251 10.3011 7.49319e-06 10.5 7.49319e-06C12.4884 0.00219119 14.3948 0.793069 15.8009 2.19912C17.2069 3.60517 17.9978 5.51155 18 7.50001C18 7.69892 17.921 7.88969 17.7803 8.03034C17.6397 8.17099 17.4489 8.25001 17.25 8.25001ZM15 7.50001C15 6.30653 14.5259 5.16194 13.682 4.31803C12.838 3.47411 11.6935 3.00001 10.5 3.00001C10.3011 3.00001 10.1103 3.07903 9.96965 3.21968C9.829 3.36033 9.74998 3.5511 9.74998 3.75001C9.74998 3.94892 9.829 4.13969 9.96965 4.28034C10.1103 4.42099 10.3011 4.50001 10.5 4.50001C11.2956 4.50001 12.0587 4.81608 12.6213 5.37869C13.1839 5.9413 13.5 6.70436 13.5 7.50001C13.5 7.69892 13.579 7.88969 13.7196 8.03034C13.8603 8.17099 14.0511 8.25001 14.25 8.25001C14.4489 8.25001 14.6397 8.17099 14.7803 8.03034C14.921 7.88969 15 7.69892 15 7.50001ZM16.6372 16.623L17.3197 15.8363C17.7541 15.4005 17.9981 14.8102 17.9981 14.1949C17.9981 13.5796 17.7541 12.9893 17.3197 12.5535C17.2965 12.5303 15.492 11.142 15.492 11.142C15.0589 10.7298 14.4836 10.5002 13.8857 10.501C13.2878 10.5019 12.7132 10.733 12.2812 11.1465L10.8517 12.351C9.68486 11.8681 8.62489 11.1594 7.73269 10.2656C6.84049 9.3719 6.13364 8.31071 5.65273 7.14301L6.85273 5.71801C7.26651 5.28614 7.49795 4.71141 7.49893 4.11331C7.49991 3.5152 7.27035 2.93973 6.85798 2.50651C6.85798 2.50651 5.46823 0.704257 5.44498 0.681008C5.01707 0.250319 4.43689 0.005274 3.8298 -0.00118142C3.22271 -0.00763684 2.63745 0.225015 2.20048 0.646508L1.33798 1.39651C-3.75752 7.30801 7.21498 18.1958 13.3215 18C13.9381 18.0036 14.5492 17.8836 15.1187 17.6471C15.6882 17.4106 16.2045 17.0624 16.6372 16.623Z" fill="#F7F7F7"></path></svg>