<svg xmlns="http://www.w3.org/2000/svg" width="16" height="18" viewBox="0 0 16 18" fill="none"><path d="M7.99991 0C6.01537 0.00218332 4.11272 0.791456 2.70936 2.19467C1.30601 3.59789 0.516542 5.50046 0.51416 7.485C0.51416 9.4125 2.00666 12.429 4.95041 16.4505C5.30086 16.9306 5.7597 17.3212 6.28961 17.5904C6.81952 17.8597 7.40552 18 7.99991 18C8.59431 18 9.1803 17.8597 9.71021 17.5904C10.2401 17.3212 10.699 16.9306 11.0494 16.4505C13.9932 12.429 15.4857 9.4125 15.4857 7.485C15.4833 5.50046 14.6938 3.59789 13.2905 2.19467C11.8871 0.791456 9.98446 0.00218332 7.99991 0ZM7.99991 10.4685C7.40657 10.4685 6.82655 10.2926 6.3332 9.96291C5.83985 9.63326 5.45533 9.16473 5.22827 8.61655C5.00121 8.06837 4.9418 7.46517 5.05755 6.88323C5.17331 6.30129 5.45903 5.76674 5.87859 5.34718C6.29815 4.92762 6.8327 4.6419 7.41464 4.52614C7.99658 4.41039 8.59978 4.4698 9.14796 4.69686C9.69614 4.92392 10.1647 5.30844 10.4943 5.80179C10.824 6.29514 10.9999 6.87516 10.9999 7.4685C10.9999 8.26415 10.6838 9.02721 10.1212 9.58982C9.55862 10.1524 8.79556 10.4685 7.99991 10.4685Z" fill="#0B4C6F"></path></svg>