<svg xmlns="http://www.w3.org/2000/svg" width="60" height="60" viewBox="0 0 60 60" fill="none"><rect width="60" height="60" rx="12" fill="url(#paint0_linear_43_783)"></rect><g clip-path="url(#clip0_43_783)"><path d="M18.9589 24.4568V35.393H20.2375V27.4868C20.2506 26.9861 20.2302 26.485 20.1765 25.987H20.2244C20.316 26.2267 20.4326 26.456 20.5725 26.6712L26.1941 35.3929H27.7652V24.4568H26.4879V32.1475C26.4764 32.6845 26.5023 33.2216 26.5653 33.755H26.5361C26.4681 33.623 26.3198 33.3798 26.0919 33.0238L20.6205 24.4569L18.9589 24.4568ZM30.6027 24.4568V35.393H36.4152L36.4212 34.1932H31.9103V30.4018H35.8577V29.2499H31.9103V25.6144H36.1458V24.4569L30.6027 24.4568ZM37.3994 24.4568V25.6143H40.5431V35.393H41.8201V25.6143H45V24.4568H37.3994ZM15.8167 33.8337C15.7092 33.8363 15.6033 33.8604 15.5053 33.9047C15.4072 33.949 15.3191 34.0125 15.2461 34.0914C15.1674 34.1701 15.1051 34.2636 15.0628 34.3666C15.0206 34.4695 14.9992 34.5799 14.9999 34.6912C14.9985 34.8026 15.0195 34.9131 15.0618 35.0162C15.1041 35.1193 15.1667 35.2127 15.2459 35.291C15.3231 35.3722 15.4162 35.4365 15.5195 35.4799C15.6227 35.5232 15.7339 35.5447 15.8458 35.5429C15.9576 35.5436 16.0684 35.5217 16.1715 35.4784C16.2746 35.4351 16.3679 35.3714 16.4457 35.291C16.5263 35.2134 16.5902 35.1202 16.6335 35.017C16.6769 34.9139 16.6986 34.8029 16.6976 34.691C16.6979 34.5793 16.6758 34.4686 16.6325 34.3656C16.5893 34.2626 16.5257 34.1693 16.4457 34.0913C16.3686 34.0096 16.2756 33.9446 16.1725 33.9003C16.0693 33.856 15.9581 33.8332 15.8458 33.8335C15.8361 33.8334 15.8264 33.8335 15.8167 33.8337Z" fill="white"></path></g><defs><linearGradient id="paint0_linear_43_783" x1="30" y1="60" x2="30" y2="0" gradientUnits="userSpaceOnUse"><stop stop-color="#07304A"></stop><stop offset="1" stop-color="#0B4C6F"></stop></linearGradient><clipPath id="clip0_43_783"><rect width="30" height="30" fill="white" transform="translate(15 15)"></rect></clipPath></defs></svg>