<svg xmlns="http://www.w3.org/2000/svg" width="60" height="60" viewBox="0 0 60 60" fill="none"><rect width="60" height="60" rx="12" fill="url(#paint0_linear_24_783)"></rect><path fill-rule="evenodd" clip-rule="evenodd" d="M45.4918 19.9037C45.4918 17.8071 44.7827 15.7971 43.5191 14.3145C42.2554 12.832 40.5422 12 38.7552 12H21.7366C19.9496 12 18.2364 12.832 16.9727 14.3145C15.7091 15.7971 15 17.8071 15 19.9037V39.8709C15 41.9675 15.7091 43.9775 16.9727 45.4601C18.2364 46.9427 19.9496 47.7746 21.7366 47.7746H38.7552C40.5422 47.7746 42.2554 46.9427 43.5191 45.4601C44.7827 43.9775 45.4918 41.9675 45.4918 39.8709V19.9037ZM30.938 23.5028L27.5343 35.4831C27.3499 36.1371 27.6506 36.8442 28.2079 37.0622C28.7653 37.2785 29.368 36.9258 29.5538 36.2719L32.9575 24.2915C33.1419 23.6376 32.8413 22.9304 32.2839 22.7124C31.7265 22.4961 31.1238 22.8489 30.938 23.5028ZM34.5998 26.7758L37.2505 29.8873L34.5998 32.9989C34.1843 33.4848 34.1843 34.2768 34.5998 34.7627C35.014 35.2502 35.689 35.2502 36.1032 34.7627L39.5069 30.7692C39.9224 30.2817 39.9224 29.493 39.5069 29.0054L36.1032 25.012C35.689 24.5245 35.014 24.5245 34.5998 25.012C34.1843 25.4979 34.1843 26.2899 34.5998 26.7758ZM24.3886 25.012L20.9849 29.0054C20.5694 29.493 20.5694 30.2817 20.9849 30.7692L24.3886 34.7627C24.8028 35.2502 25.4778 35.2502 25.892 34.7627C26.3075 34.2768 26.3075 33.4848 25.892 32.9989L23.2413 29.8873L25.892 26.7758C26.3075 26.2899 26.3075 25.4979 25.892 25.012C25.4778 24.5245 24.8028 24.5245 24.3886 25.012Z" fill="white"></path><defs><linearGradient id="paint0_linear_24_783" x1="30" y1="60" x2="30" y2="0" gradientUnits="userSpaceOnUse"><stop stop-color="#07304A"></stop><stop offset="1" stop-color="#0B4C6F"></stop></linearGradient></defs></svg>