<svg xmlns="http://www.w3.org/2000/svg" width="60" height="60" viewBox="0 0 60 60" fill="none"><rect width="60" height="60" rx="12" fill="url(#paint0_linear_43_782)"></rect><g clip-path="url(#clip0_43_782)"><path d="M34.6374 24.2743H25.3629C24.7617 24.2743 24.2745 24.7614 24.2745 25.3626V34.6373C24.2745 35.2385 24.7618 35.7256 25.3629 35.7256H34.6374C35.2386 35.7256 35.7257 35.2385 35.7257 34.6373V25.3626C35.7257 24.7616 35.2386 24.2743 34.6374 24.2743ZM33.549 33.5489H26.4512V26.451H33.549V33.5489Z" fill="white"></path><path d="M43.9117 31.0883C44.5129 31.0883 45 30.6012 45 30C45 29.3988 44.5129 28.9117 43.9117 28.9117H40.363V26.451H43.9117C44.5129 26.451 45 25.9639 45 25.3627C45 24.7615 44.5129 24.2743 43.9117 24.2743H40.363V20.7254C40.363 20.1242 39.8758 19.637 39.2746 19.637H35.7257V16.0883C35.7257 15.4871 35.2385 15 34.6373 15C34.0361 15 33.549 15.4871 33.549 16.0883V19.637H31.0883V16.0883C31.0883 15.4871 30.6012 15 30 15C29.3988 15 28.9117 15.4871 28.9117 16.0883V19.637H26.4512V16.0883C26.4512 15.4871 25.964 15 25.3628 15C24.7616 15 24.2745 15.4871 24.2745 16.0883V19.637H20.7255C20.1243 19.637 19.6372 20.1243 19.6372 20.7254V24.2743H16.0883C15.4871 24.2743 15 24.7615 15 25.3627C15 25.9639 15.4871 26.451 16.0883 26.451H19.6372V28.9117H16.0883C15.4871 28.9117 15 29.3988 15 30C15 30.6012 15.4871 31.0883 16.0883 31.0883H19.6372V33.549H16.0883C15.4871 33.549 15 34.0361 15 34.6373C15 35.2385 15.4871 35.7257 16.0883 35.7257H19.6372V39.2746C19.6372 39.8758 20.1243 40.363 20.7255 40.363H24.2745V43.9117C24.2745 44.5129 24.7618 45 25.3628 45C25.964 45 26.4512 44.5129 26.4512 43.9117V40.363H28.9117V43.9117C28.9117 44.5129 29.3988 45 30 45C30.6012 45 31.0883 44.5129 31.0883 43.9117V40.363H33.549V43.9117C33.549 44.5129 34.0361 45 34.6373 45C35.2385 45 35.7257 44.5129 35.7257 43.9117V40.363H39.2746C39.8758 40.363 40.363 39.8758 40.363 39.2746V35.7257H43.9117C44.5129 35.7257 45 35.2385 45 34.6373C45 34.0361 44.5129 33.549 43.9117 33.549H40.363V31.0883H43.9117ZM38.1863 38.1863H21.8138V21.8137H38.1863V38.1863Z" fill="white"></path></g><defs><linearGradient id="paint0_linear_43_782" x1="30" y1="60" x2="30" y2="0" gradientUnits="userSpaceOnUse"><stop stop-color="#07304A"></stop><stop offset="1" stop-color="#0B4C6F"></stop></linearGradient><clipPath id="clip0_43_782"><rect width="30" height="30" fill="white" transform="translate(15 15)"></rect></clipPath></defs></svg>