<svg xmlns="http://www.w3.org/2000/svg" width="189" height="62" viewBox="0 0 189 62" fill="none"><path d="M137.652 12.8989C135.528 12.8989 133.758 13.7248 132.343 15.2585C130.809 16.7922 130.101 18.6798 130.101 20.8034C130.101 22.927 130.809 24.8147 132.343 26.3484C133.876 27.8821 135.646 28.7079 137.652 28.7079C139.775 28.7079 141.545 28.0001 142.961 26.4664C144.376 24.9326 145.202 23.045 145.202 20.9214C145.202 18.6798 144.494 16.9102 142.961 15.3765C141.545 13.7248 139.775 12.8989 137.652 12.8989ZM138.006 2.87085C142.843 2.87085 147.09 4.64051 150.511 8.17984C153.933 11.7192 155.702 15.9664 155.702 20.8034C155.702 25.7585 153.933 30.0057 150.393 33.545C146.854 37.0843 142.607 38.736 137.652 38.736C132.697 38.736 128.449 36.9664 124.91 33.427C121.371 29.8877 119.601 25.6405 119.601 20.6855C119.601 15.7304 121.371 11.4832 124.91 7.94388C128.567 4.64051 132.815 2.87085 138.006 2.87085Z" fill="#008CCF"></path><path fill-rule="evenodd" clip-rule="evenodd" d="M138.36 8.17975C138.595 7.94379 139.185 7.94379 139.421 7.94379C141.781 7.82582 144.14 8.76964 146.146 10.0674C147.916 11.3651 149.331 13.1348 150.039 15.2584C150.275 16.2022 150.511 17.146 150.393 18.2078C150.393 18.4438 150.275 18.5618 150.275 18.6797C149.803 19.5056 149.213 18.3258 148.977 17.9719C148.86 17.7359 148.742 17.5 148.506 17.146C147.916 15.9663 147.208 14.9045 146.382 13.8427C146.028 13.4887 145.674 13.0168 145.32 12.6629C144.966 12.309 144.494 11.955 144.14 11.6011C142.961 10.7753 141.781 10.0674 140.483 9.4775C140.129 9.35952 139.775 9.24155 139.539 9.12357C139.303 8.88761 138.124 8.4157 138.36 8.17975Z" fill="white"></path><path d="M157.118 37.91V15.7303C157.118 11.837 158.298 8.7696 160.657 6.41005C163.017 4.0505 166.084 2.87072 169.977 2.87072C173.871 2.87072 176.82 4.0505 178.826 6.29207C180.831 8.53364 181.893 11.837 181.893 16.0842V37.91H171.747V16.0842C171.747 13.9606 171.039 13.0168 169.506 13.0168C168.09 13.0168 167.382 14.0786 167.382 16.0842V37.91H157.118ZM117.477 37.91H107.331V3.69656H117.477V37.91ZM104.854 3.57859V13.2527C104.146 13.0168 103.556 12.8988 103.202 12.8988C102.376 12.8988 101.786 13.1348 101.197 13.7247C100.607 14.3145 100.371 15.0224 100.371 15.7303C100.371 16.4381 100.725 17.264 101.315 18.3258L102.14 19.6235C103.556 22.1011 104.264 24.4606 104.264 26.7022C104.264 30.0055 103.084 32.837 100.725 35.0786C98.3651 37.3202 95.4157 38.4999 91.9943 38.4999C90.3426 38.4999 88.6909 38.146 87.1572 37.3202V27.41C88.1011 27.9999 89.0449 28.3539 89.7527 28.3539C90.6966 28.3539 91.4044 28.1179 91.9943 27.646C92.5842 27.1741 92.9381 26.4662 92.9381 25.7584C92.9381 25.2864 92.4662 24.2247 91.5224 22.455C89.9887 19.7415 89.2808 17.146 89.2808 14.4325C89.2808 11.2471 90.4606 8.41566 92.7022 6.17409C95.0617 3.81454 97.7752 2.63477 100.961 2.63477C102.14 2.87072 103.438 3.10668 104.854 3.57859ZM84.5617 37.91H74.4157V3.69656H84.5617V37.91ZM74.7696 3.69656L59.7865 39.7977L44.9213 3.69656H56.719L59.9044 14.3145L63.3258 3.69656H74.7696ZM21.7977 37.91V15.7303C21.7977 11.837 22.9775 8.7696 25.337 6.41005C27.6966 4.0505 30.764 2.87072 34.6572 2.87072C38.5505 2.87072 41.4999 4.0505 43.5056 6.29207C45.5112 8.53364 46.573 11.837 46.573 16.0842V37.91H36.3089V16.0842C36.3089 13.9606 35.6011 13.0168 34.0674 13.0168C32.6516 13.0168 31.9438 14.0786 31.9438 16.0842V37.91H21.7977ZM18.6123 17.028V24.5786H11.8876C10.9438 24.5786 10.3539 24.6966 9.99994 24.9325C9.64601 25.1685 9.41005 25.6404 9.41005 26.2303C9.41005 26.9381 9.64601 27.41 9.99994 27.646C10.3539 27.882 11.1797 27.9999 12.3595 27.9999H19.2022V37.7921H11.1797C7.40444 37.7921 4.57298 36.8482 2.56736 35.0786C0.56174 33.4269 -0.38208 30.8314 -0.38208 27.41V14.0786C-0.38208 10.7752 0.56174 8.29769 2.44938 6.52802C4.33702 4.75836 6.93253 3.81454 10.3539 3.81454H19.2022V13.6067H12.7134C10.9438 13.6067 10.1179 14.1966 10.1179 15.2584C10.1179 15.9662 10.3539 16.4381 10.7078 16.6741C11.1797 16.91 11.8876 17.028 12.9494 17.028H18.6123Z" fill="white"></path><path d="M184.961 0.0393066C185.551 0.0393066 186.14 0.157284 186.612 0.511217C187.202 0.747172 187.556 1.21908 187.91 1.80897C188.264 2.39886 188.382 2.87077 188.382 3.46066C188.382 4.05054 188.264 4.64043 187.91 5.11234C187.556 5.58425 187.202 6.05616 186.612 6.41009C186.022 6.76403 185.551 6.882 184.961 6.882C184.371 6.882 183.781 6.76403 183.309 6.41009C182.719 6.05616 182.365 5.70223 182.011 5.11234C181.657 4.52245 181.539 4.05054 181.539 3.46066C181.539 2.87077 181.657 2.28088 182.011 1.80897C182.365 1.33706 182.719 0.865149 183.309 0.511217C183.899 0.157284 184.371 0.0393066 184.961 0.0393066ZM184.961 0.629194C184.489 0.629194 184.017 0.747172 183.545 0.983127C183.073 1.21908 182.719 1.57301 182.483 2.04492C182.247 2.51683 182.129 2.98875 182.129 3.46066C182.129 3.93257 182.247 4.40448 182.483 4.87639C182.719 5.3483 183.073 5.70223 183.545 5.93818C184.017 6.17414 184.489 6.29212 184.961 6.29212C185.433 6.29212 185.904 6.17414 186.376 5.93818C186.848 5.70223 187.202 5.3483 187.438 4.87639C187.674 4.40448 187.792 3.93257 187.792 3.46066C187.792 2.98875 187.674 2.51683 187.438 2.04492C187.202 1.57301 186.848 1.21908 186.376 0.983127C185.904 0.747172 185.433 0.629194 184.961 0.629194ZM183.545 5.3483V1.69099H184.843C185.315 1.69099 185.551 1.69099 185.787 1.80897C186.022 1.92695 186.14 2.04492 186.258 2.1629C186.376 2.28088 186.376 2.51683 186.376 2.75279C186.376 2.98874 186.258 3.2247 186.14 3.46066C185.904 3.69661 185.669 3.81459 185.433 3.81459C185.551 3.81459 185.669 3.93257 185.787 4.05054C185.904 4.16852 186.14 4.40448 186.376 4.75841L186.848 5.46627H186.14L185.551 4.75841C185.315 4.2865 185.079 4.05054 184.961 3.93257C184.843 3.81459 184.725 3.81459 184.489 3.81459H184.135V5.3483H183.545ZM184.135 3.34268H184.843C185.197 3.34268 185.433 3.34268 185.551 3.2247C185.669 3.10672 185.787 2.98875 185.787 2.87077C185.787 2.75279 185.786 2.63481 185.669 2.63481C185.551 2.51683 185.551 2.51683 185.433 2.39886C185.315 2.39886 185.079 2.28088 184.843 2.28088H184.135V3.34268Z" fill="white"></path><path d="M5.51677 57.4943C5.51677 57.7303 5.39879 57.9662 5.28081 58.0842C5.16283 58.2022 4.92688 58.3201 4.69092 58.3201H1.50553C1.26958 58.3201 1.03362 58.2022 0.915643 58.0842C0.797665 57.9662 0.679688 57.7303 0.679688 57.4943V46.9943C0.679688 46.7583 0.797665 46.5224 0.915643 46.4044C1.03362 46.2864 1.26958 46.1685 1.50553 46.1685H4.69092C4.92688 46.1685 5.16283 46.2864 5.28081 46.4044C5.39879 46.5224 5.51677 46.7583 5.51677 46.9943V49.8258H4.45497V47.1123H1.74149V57.3763H4.45497V54.4269H5.51677V57.4943Z" fill="white"></path><path d="M11.7696 57.4942C11.7696 58.0841 11.4157 58.32 10.8258 58.32H8.23026C7.64037 58.32 7.40442 58.0841 7.40442 57.4942V51.7133C7.40442 51.1234 7.64037 50.8875 8.23026 50.8875H10.8258C11.4157 50.8875 11.7696 51.1234 11.7696 51.7133V57.4942ZM10.7078 57.4942V51.7133H8.34824V57.4942H10.7078Z" fill="white"></path><path d="M21.0898 58.4381H20.028V51.8314L17.7864 51.9494V58.5561H16.7246V51.9494L14.4831 52.0673V58.6741H13.4213V50.7696H14.4831V51.0055C14.837 51.0055 15.3089 50.8876 15.6628 50.8876C16.1347 50.7696 16.6067 50.7696 16.8426 50.7696C17.1965 50.7696 17.4325 50.8876 17.5505 51.0055C18.0224 51.0055 18.3763 50.8876 18.8482 50.7696C19.4381 50.6516 19.91 50.6516 20.146 50.6516C20.7359 50.6516 20.9718 50.8876 20.9718 51.4775V58.4381H21.0898Z" fill="white"></path><path d="M27.2246 56.7864C27.2246 57.2583 27.1066 57.6122 26.7527 57.9662C26.3988 58.3201 26.0448 58.4381 25.5729 58.4381H23.8033V61.2695H22.7415V50.7695H23.8033V51.0055C24.2752 51.0055 24.6291 50.8875 25.101 50.8875C25.5729 50.7695 26.0448 50.7695 26.2808 50.7695C26.8707 50.7695 27.1066 51.0055 27.1066 51.5954V56.7864H27.2246ZM26.1628 56.5504V51.7134L23.8033 51.8313V57.4943H25.219C25.9268 57.4943 26.1628 57.1403 26.1628 56.5504Z" fill="white"></path><path d="M33.2414 58.4381H32.1797V58.2021C31.7077 58.2021 31.3538 58.3201 30.8819 58.3201C30.41 58.4381 29.9381 58.4381 29.5841 58.4381C28.9943 58.4381 28.7583 58.2021 28.7583 57.6122V50.7695H29.8201V57.3763L32.1797 57.2583V50.7695H33.2414V58.4381Z" fill="white"></path><path d="M37.7246 58.438H36.1909C35.601 58.438 35.3651 58.202 35.3651 57.6122V51.8313H34.4213V50.7695H35.3651V48.4099H36.4269V50.7695H37.7246V51.7133H36.4269V57.4942H37.7246V58.438Z" fill="white"></path><path d="M43.3875 57.4942C43.3875 58.0841 43.1516 58.32 42.5617 58.32H40.0841C39.4943 58.32 39.2583 58.0841 39.2583 57.4942V51.7133C39.2583 51.1234 39.4943 50.8875 40.0841 50.8875H42.5617C43.1516 50.8875 43.3875 51.1234 43.3875 51.7133V54.4268L43.0336 54.7807H40.0841V57.4942H42.3257V56.0785H43.3875V57.4942ZM42.3257 53.9549V51.7133H40.0841V53.9549H42.3257Z" fill="white"></path><path d="M49.1685 53.2471H48.1067V51.7134L46.219 51.8313V58.4381H45.1572V50.7695H46.219V51.0055C46.573 51.0055 46.9269 50.8875 47.2808 50.8875C47.6348 50.7695 47.9887 50.7695 48.2246 50.7695C48.8145 50.7695 49.0505 51.0055 49.0505 51.5954V53.2471H49.1685Z" fill="white"></path><path d="M58.0168 47.1123H56.1291V58.3201H55.0673V47.1123H53.1797V46.1685H58.1347V47.1123H58.0168Z" fill="white"></path><path d="M63.0898 53.2471H62.146V51.7134L60.2583 51.8313V58.4381H59.1965V50.7695H60.2583V51.0055C60.6123 51.0055 60.9662 50.8875 61.3201 50.8875C61.792 50.7695 62.146 50.7695 62.3819 50.7695C62.9718 50.7695 63.2078 51.0055 63.2078 51.5954V53.2471H63.0898Z" fill="white"></path><path d="M68.7527 58.4382H67.6909V58.2022C67.219 58.2022 66.8651 58.3202 66.3932 58.3202C65.9213 58.4382 65.4494 58.4382 65.2134 58.4382C64.6235 58.4382 64.3876 58.2022 64.3876 57.6124V54.8989C64.3876 54.309 64.7415 54.073 65.3314 54.073H67.8089V51.8315H65.5673V53.1292H64.5055V51.8315C64.5055 51.2416 64.7415 51.0056 65.3314 51.0056H67.8089C68.3988 51.0056 68.6348 51.2416 68.6348 51.8315V58.4382H68.7527ZM67.8089 57.4944V54.7809H65.4494V57.4944H67.8089Z" fill="white"></path><path d="M71.5841 49.1178H70.5223V47.8201H71.5841V49.1178ZM71.5841 58.438H70.5223V50.7695H71.5841V58.438Z" fill="white"></path><path d="M77.837 58.4381H76.7752V51.8313L74.4157 51.9493V58.556H73.3539V50.7695H74.4157V51.0055C74.7696 51.0055 75.2415 50.8875 75.5955 50.8875C76.0674 50.7695 76.5393 50.7695 76.8932 50.7695C77.4831 50.7695 77.7191 51.0055 77.7191 51.5954V58.4381H77.837Z" fill="white"></path><path d="M80.5504 49.1178H79.4886V47.8201H80.5504V49.1178ZM80.5504 58.438H79.4886V50.7695H80.5504V58.438Z" fill="white"></path><path d="M86.8033 58.4381H85.7415V51.8313L83.382 51.9493V58.556H82.3202V50.7695H83.382V51.0055C83.7359 51.0055 84.2078 50.8875 84.5618 50.8875C85.0337 50.7695 85.5056 50.7695 85.8595 50.7695C86.4494 50.7695 86.6854 51.0055 86.6854 51.5954V58.4381H86.8033Z" fill="white"></path><path d="M92.8202 60.4437C92.8202 61.0336 92.4662 61.2695 91.8764 61.2695H89.3988C88.8089 61.2695 88.455 60.9156 88.455 60.2077C88.455 60.0898 88.455 59.9718 88.455 59.8538C88.455 59.7358 88.455 59.4999 88.455 59.4999H89.5168V60.5617H91.7584V58.556H89.9887C89.5168 58.556 89.1629 58.4381 88.8089 58.0841C88.455 57.7302 88.337 57.3763 88.337 56.9044V52.4212C88.337 51.9493 88.455 51.5954 88.691 51.3594C88.9269 51.0055 89.2809 50.8875 89.7528 50.8875C89.8707 50.8875 90.4606 51.0055 91.6404 51.1235V50.7695H92.8202V60.4437ZM91.7584 57.4943V51.7134C90.9325 51.7134 90.4606 51.5954 90.3427 51.5954C89.7528 51.5954 89.5168 51.8313 89.5168 52.4212V56.4325C89.5168 57.0223 89.7528 57.2583 90.3427 57.2583H91.7584V57.4943Z" fill="white"></path><path d="M98.955 58.4381H97.8932V46.1685H98.955V58.4381Z" fill="white"></path><path d="M105.326 58.4381H104.264V51.8313L101.904 51.9493V58.556H100.843V50.7695H101.904V51.0055C102.258 51.0055 102.73 50.8875 103.084 50.8875C103.556 50.7695 104.028 50.7695 104.382 50.7695C104.972 50.7695 105.208 51.0055 105.208 51.5954V58.4381H105.326Z" fill="white"></path><path d="M111.107 57.4943C111.107 58.0842 110.753 58.3202 110.163 58.3202H107.803C107.213 58.3202 106.859 58.0842 106.859 57.4943V55.7246H107.921V57.3763H110.045V55.8426L107.331 53.601C107.095 53.3651 106.977 53.1291 106.977 52.7752V51.4775C106.977 50.8876 107.331 50.6516 107.921 50.6516H110.281C110.871 50.6516 111.225 50.8876 111.225 51.4775V53.0112H110.163V51.4775H108.039V52.7752L110.753 55.0168C110.989 55.2527 111.107 55.4887 111.107 55.8426V57.4943Z" fill="white"></path><path d="M115.472 58.438H114.056C113.466 58.438 113.23 58.202 113.23 57.6122V51.8313H112.286V50.7695H113.23V48.4099H114.292V50.7695H115.59V51.7133H114.292V57.4942H115.59V58.438H115.472Z" fill="white"></path><path d="M117.949 49.1178H116.888V47.8201H117.949V49.1178ZM117.949 58.438H116.888V50.7695H117.949V58.438Z" fill="white"></path><path d="M122.433 58.438H120.899C120.309 58.438 120.073 58.202 120.073 57.6122V51.8313H119.129V50.7695H120.073V48.4099H121.135V50.7695H122.433V51.7133H121.135V57.4942H122.433V58.438Z" fill="white"></path><path d="M128.213 58.4381H127.152V58.2021C126.68 58.2021 126.326 58.3201 125.854 58.3201C125.382 58.4381 124.91 58.4381 124.556 58.4381C123.966 58.4381 123.73 58.2021 123.73 57.6122V50.7695H124.792V57.3763L127.152 57.2583V50.7695H128.213V58.4381Z" fill="white"></path><path d="M132.697 58.438H131.163C130.573 58.438 130.337 58.202 130.337 57.6122V51.8313H129.393V50.7695H130.337V48.4099H131.399V50.7695H132.697V51.7133H131.399V57.4942H132.697V58.438Z" fill="white"></path><path d="M138.242 57.4942C138.242 58.0841 138.006 58.32 137.416 58.32H134.938C134.348 58.32 134.112 58.0841 134.112 57.4942V51.7133C134.112 51.1234 134.348 50.8875 134.938 50.8875H137.416C138.006 50.8875 138.242 51.1234 138.242 51.7133V54.4268L137.888 54.7807H134.938V57.4942H137.18V56.0785H138.242V57.4942ZM137.298 53.9549V51.7133H135.056V53.9549H137.298Z" fill="white"></path><path d="M148.152 52.6572C148.152 52.8932 148.034 53.1291 147.916 53.2471C147.798 53.3651 147.562 53.4831 147.326 53.4831H144.376V58.3201H143.314V46.1685H147.326C147.562 46.1685 147.798 46.2864 147.916 46.4044C148.034 46.5224 148.152 46.7583 148.152 46.9943V52.6572ZM147.09 52.5392V47.1123H144.376V52.5392H147.09Z" fill="white"></path><path d="M154.05 50.7695L152.163 58.3201H151.219L149.331 50.7695H150.393L151.691 56.7864L152.989 50.7695H154.05Z" fill="white"></path><path d="M158.18 58.438H156.646C156.056 58.438 155.82 58.202 155.82 57.6122V51.8313H154.876V50.7695H155.82V48.4099H156.882V50.7695H158.18V51.7133H156.882V57.4942H158.18V58.438Z" fill="white"></path><path d="M160.539 58.4382H159.359V57.0225H160.539V58.4382Z" fill="white"></path><path d="M169.388 58.4381H165.494V46.1685H166.556V57.3763H169.388V58.4381Z" fill="white"></path><path d="M173.517 58.438H171.983C171.393 58.438 171.157 58.202 171.157 57.6122V51.8313H170.213V50.7695H171.157V48.4099H172.219V50.7695H173.517V51.7133H172.219V57.4942H173.517V58.438Z" fill="white"></path><path d="M179.18 58.4381H178.118V58.2022C176.938 58.3201 176.348 58.4381 176.23 58.4381C175.758 58.4381 175.404 58.3201 175.168 57.9662C174.932 57.6123 174.814 57.2583 174.814 56.9044V52.4213C174.814 51.9494 174.932 51.5954 175.286 51.2415C175.64 50.8876 175.994 50.7696 176.466 50.7696H178.236V46.1685H179.298V58.4381H179.18ZM178.118 57.4943V51.7134H176.702C176.112 51.7134 175.876 51.9494 175.876 52.5392V56.6685C175.876 57.2583 176.112 57.4943 176.702 57.4943C176.82 57.4943 177.292 57.4943 178.118 57.4943Z" fill="white"></path><path d="M182.011 58.4382H180.831V57.0225H182.011V58.4382Z" fill="white"></path></svg>